#define max_width 6
#define max_height 6
static unsigned char max_bits[] = {
   0x00, 0x18, 0x10, 0x02, 0x06, 0x00 };
