/* XPM */
static char * close_inactive_xpm[] = {
"24 24 46 1",
" 	c None",
".	c #EBEBEB",
"+	c #E7E7E7",
"@	c #E0DFDE",
"#	c #DBDBDB",
"$	c #D1D0CF",
"%	c #D2D0CF",
"&	c #DBDADA",
"*	c #DEDDDC",
"=	c #E3E2E2",
"-	c #E6E6E6",
";	c #D8D6D6",
">	c #E4E3E3",
",	c #DFDFDE",
"'	c #D3D1D0",
")	c #D4D2D1",
"!	c #E0DFDF",
"~	c #DDDCDC",
"{	c #E7E7E6",
"]	c #D9D7D7",
"^	c #DFDEDE",
"/	c #837D7A",
"(	c #817B78",
"_	c #C9C7C5",
":	c #C9C7C6",
"<	c #807B77",
"[	c #857F7C",
"}	c #D7D5D4",
"|	c #6D6662",
"1	c #7F7975",
"2	c #7E7974",
"3	c #817C79",
"4	c #D7D6D5",
"5	c #D4D3D2",
"6	c #CAC8C6",
"7	c #807A76",
"8	c #7D7772",
"9	c #C8C6C5",
"0	c #C8C7C5",
"a	c #D8D7D6",
"b	c #86807C",
"c	c #DFDEDD",
"d	c #E1E0DF",
"e	c #E4E4E4",
"f	c #D9D7D6",
"g	c #D2D1D0",
".......+@#$$$%&*=.......",
".....-;$$$$$$$$$$;>.....",
"....,'$$$$$$$$$$$$)!....",
"...*$$$$$$$$$$$$$$$$~...",
"..,$$$$$$$$$$$$$$$$$$,..",
".+)$$$$$$$$$$$$$$$$$$'{.",
".;$$$$$$$$$$$$$$$$$$$$].",
"+$$$$$$$$$$$$$$$$$$$$$$+",
"^$$$$$$$/(_$$:<[$$$$$$$*",
"}$$$$$$$(|1__2|3$$$$$$$4",
"5$$$$$$$_2|11|1_$$$$$$$5",
"$$$$$$$$$67||89$$$$$$$$$",
"$$$$$$$$$67||80$$$$$$$$$",
"5$$$$$$$_2|11|2_$$$$$$$5",
"a$$$$$$$<|2__1|($$$$$$$4",
"^$$$$$$$[(:$$_(b$$$$$$$*",
"+$$$$$$$$$$$$$$$$$$$$$$+",
".;$$$$$$$$$$$$$$$$$$$$].",
".+'$$$$$$$$$$$$$$$$$$){.",
"..,$$$$$$$$$$$$$$$$$$,..",
"...*$$$$$$$$$$$$$$$$c...",
"....d)$$$$$$$$$$$$),....",
".....ef$$$$$$$$$$]+.....",
".......e~&'$$g#@+......."};
