/* XPM */
static char * close_active_xpm[] = {
"24 24 55 1",
" 	c None",
".	c #DEDEDE",
"+	c #E2CCB9",
"@	c #E9B588",
"#	c #ECA568",
"$	c #F58322",
"%	c #F6811E",
"&	c #F68627",
"*	c #EDA466",
"=	c #EAAC78",
"-	c #E6C2A4",
";	c #E3CAB4",
">	c #EE9C57",
",	c #F0984D",
"'	c #E5C4A8",
")	c #E9B589",
"!	c #F58729",
"~	c #F5892D",
"{	c #E8B78E",
"]	c #EAAD79",
"^	c #EBAB74",
"/	c #E2CEBC",
"(	c #EF9E5B",
"_	c #E3CCB8",
":	c #EAAF7E",
"<	c #7B5A40",
"[	c #775941",
"}	c #E97D21",
"|	c #E87C22",
"1	c #765941",
"2	c #7D5A40",
"3	c #EBAD7A",
"4	c #F19445",
"5	c #574F4A",
"6	c #725742",
"7	c #715843",
"8	c #F19547",
"9	c #F48A31",
"0	c #F68220",
"a	c #E97D22",
"b	c #735842",
"c	c #705743",
"d	c #E77C22",
"e	c #F09649",
"f	c #F19648",
"g	c #7D5B3F",
"h	c #F48527",
"i	c #EAAF7C",
"j	c #E8BA93",
"k	c #F5882D",
"l	c #E5C6AC",
"m	c #EF994F",
"n	c #E3C6AD",
"o	c #EBAB75",
"p	c #F58424",
".......+@#$%%&*=-.......",
".....;>%%%%%%%%%%,'.....",
"....)!%%%%%%%%%%%%~{....",
"...]%%%%%%%%%%%%%%%%^...",
"..)%%%%%%%%%%%%%%%%%%)..",
".+~%%%%%%%%%%%%%%%%%%!/.",
".>%%%%%%%%%%%%%%%%%%%%(.",
"_%%%%%%%%%%%%%%%%%%%%%%+",
":%%%%%%%<[}%%|12%%%%%%%3",
"4%%%%%%%[56}}75[%%%%%%%8",
"9%%%%%%%}756656}%%%%%%%9",
"0%%%%%%%%ab55cd%%%%%%%%%",
"%%%%%%%%%ab55cd%%%%%%%%0",
"9%%%%%%%}756657}%%%%%%%9",
"e%%%%%%%157}}65[%%%%%%%f",
":%%%%%%%2[|%%}[g%%%%%%%3",
"+0%%%%%%%%%%%%%%%%%%%%%_",
".>%%%%%%%%%%%%%%%%%%%%(.",
".+h%%%%%%%%%%%%%%%%%%~/.",
"..)%%%%%%%%%%%%%%%%%%)..",
"...]%%%%%%%%%%%%%%%%i...",
"....j~%%%%%%%%%%%%k)....",
".....lm%%%%%%%%%%(_.....",
".......no*!%%p#@+......."};
