/* XPM */
static char * shade_toggled_active_xpm[] = {
"24 24 5 1",
" 	c None",
".	c #DEDEDE",
"+	c #574F4A",
"@	c #D4D4D3",
"#	c #756F6B",
"........................",
"........................",
"........................",
"........................",
"........................",
"........................",
"........................",
"........................",
"...........++...........",
"...........++...........",
"...........++...........",
"........@#@++@#@........",
"........#+#++#+#........",
"........@#++++#@........",
".........@#++#@.........",
"..........@##@..........",
"........................",
"........................",
"........................",
"........................",
"........................",
"........................",
"........................",
"........................"};
