/* XPM */
static char * top_right_active_xpm[] = {
"7 37 4 1",
" 	c None",
".	c #C4C4C4",
"+	c #DEDEDE",
"@	c #D7D7D7",
".....  ",
"++++@. ",
"+++++@.",
"++++++.",
"++++++.",
"++++++.",
"++++++.",
"++++++.",
"++++++.",
"++++++.",
"++++++.",
"++++++.",
"++++++.",
"++++++.",
"++++++.",
"++++++.",
"++++++.",
"++++++.",
"++++++.",
"++++++.",
"++++++.",
"++++++.",
"++++++.",
"++++++.",
"++++++.",
"++++++.",
"++++++.",
"++++++.",
"++++++.",
"++++++.",
"++++++.",
"++++++.",
"++++++.",
"++++++.",
"++++++.",
"++++++.",
"++++++."};
