/* XPM */
static char * maximize_pressed_xpm[] = {
"24 24 16 1",
" 	c None",
".	c #DEDEDE",
"+	c #E0E0E0",
"@	c #E2E2E2",
"#	c #E4E4E4",
"$	c #E7E7E7",
"%	c #E3E3E3",
"&	c #E1E1E1",
"*	c #E5E5E5",
"=	c #E6E6E6",
"-	c #DFDFDF",
";	c #5D5753",
">	c #342C27",
",	c #DBDADA",
"'	c #DAD9D9",
")	c #5E5854",
".......+@#$$$$%%&.......",
".....+*$$$$$$$$$$*&.....",
"....@=$$$$$$$$$$$$=@....",
"...%$$$$$$$$$$$$$$$$%...",
"..@$$$$$$$$$$$$$$$$$$@..",
".+=$$$$$$$$$$$$$$$$$$=-.",
".*$$$$$$$$$$$$$$$$$$$$#.",
"&$$$$$$$$$$$$$$$$$$$$$$+",
"%$$$$$$$;>>>>>>;$$$$$$$%",
"*$$$$$$$>>>>>>>>$$$$$$$*",
"=$$$$$$$>>,$$'>>$$$$$$$=",
"$$$$$$$$>>$$$$>>$$$$$$$$",
"$$$$$$$$>>$$$$>>$$$$$$$$",
"=$$$$$$$>>'$$'>>$$$$$$$=",
"*$$$$$$$>>>>>>>>$$$$$$$*",
"%$$$$$$$;>>>>>>)$$$$$$$%",
"+$$$$$$$$$$$$$$$$$$$$$$&",
".*$$$$$$$$$$$$$$$$$$$$#.",
".+$$$$$$$$$$$$$$$$$$$=-.",
"..@$$$$$$$$$$$$$$$$$$@..",
"...%$$$$$$$$$$$$$$$$%...",
"....@=$$$$$$$$$$$$$@....",
".....+*$$$$$$$$$$#&.....",
".......+@%=$$$#@+......."};
