/* XPM */
static char * shade_inactive_xpm[] = {
"24 24 5 1",
" 	c None",
".	c #EBEBEB",
"+	c #898480",
"@	c #6D6662",
"#	c #E2E2E1",
"........................",
"........................",
"........................",
"........................",
"........................",
"........................",
"........................",
"........................",
"...........++...........",
"..........+@@+..........",
".........+@@@@+.........",
"........+@+@@+@+........",
"........#+#@@#+#........",
"...........@@...........",
"...........@@...........",
"...........@@...........",
"........................",
"........................",
"........................",
"........................",
"........................",
"........................",
"........................",
"........................"};
