/* XPM */
static char * stick_prelight_xpm[] = {
"24 24 22 1",
" 	c None",
".	c #DEDEDE",
"+	c #DBDBDB",
"@	c #D8D7D7",
"#	c #D6D5D5",
"$	c #D1D0D0",
"%	c #D0CFCF",
"&	c #D5D4D4",
"*	c #D7D7D7",
"=	c #D9D9D9",
"-	c #DCDBDB",
";	c #D3D2D2",
">	c #DADADA",
",	c #D8D8D8",
"'	c #D6D6D6",
")	c #DCDCDC",
"!	c #D4D4D4",
"~	c #C5C3C3",
"{	c #57514D",
"]	c #342C27",
"^	c #D3D3D3",
"/	c #D4D3D3",
".......+@#$%%$&*=.......",
".....-&%%%%%%%%%%;>.....",
"....*$%%%%%%%%%%%%$,....",
"...*%%%%%%%%%%%%%%%%'...",
"..*%%%%%%%%%%%%%%%%%%*..",
".+$%%%%%%%%%%%%%%%%%%$).",
".&%%%%%%%%%%%%%%%%%%%%!.",
"-%%%%%%%%%%%%%%%%%%%%%%+",
"@%%%%%%%%~{]]{~%%%%%%%%*",
"^%%%%%%%~{]]]]{~%%%%%%%;",
"$%%%%%%%{]]]]]]{%%%%%%%$",
"%%%%%%%%]]]]]]]]%%%%%%%%",
"%%%%%%%%]]]]]]]]%%%%%%%%",
"$%%%%%%%{]]]]]]{%%%%%%%$",
";%%%%%%%~{]]]]{~%%%%%%%;",
"@%%%%%%%%~{]]{~%%%%%%%%*",
"+%%%%%%%%%%%%%%%%%%%%%%-",
".&%%%%%%%%%%%%%%%%%%%%!.",
".+$%%%%%%%%%%%%%%%%%%$).",
"..*%%%%%%%%%%%%%%%%%%*..",
"...*%%%%%%%%%%%%%%%%*...",
"....,$%%%%%%%%%%%%$*....",
".....>/%%%%%%%%%%!-.....",
".......+'&$%%$#@+......."};
