/* XPM */
static char * top_left_active_xpm[] = {
"7 37 4 1",
" 	c None",
".	c #C4C4C4",
"+	c #D7D7D7",
"@	c #DEDEDE",
"  .....",
" .+@@@@",
".+@@@@@",
".@@@@@@",
".@@@@@@",
".@@@@@@",
".@@@@@@",
".@@@@@@",
".@@@@@@",
".@@@@@@",
".@@@@@@",
".@@@@@@",
".@@@@@@",
".@@@@@@",
".@@@@@@",
".@@@@@@",
".@@@@@@",
".@@@@@@",
".@@@@@@",
".@@@@@@",
".@@@@@@",
".@@@@@@",
".@@@@@@",
".@@@@@@",
".@@@@@@",
".@@@@@@",
".@@@@@@",
".@@@@@@",
".@@@@@@",
".@@@@@@",
".@@@@@@",
".@@@@@@",
".@@@@@@",
".@@@@@@",
".@@@@@@",
".@@@@@@",
".@@@@@@"};
