/* XPM */
static char * close_inactive_xpm[] = {
"24 24 37 1",
" 	c None",
".	c #524F4C",
"+	c #575451",
"@	c #5C5957",
"#	c #64625F",
"$	c #686663",
"%	c #6B6966",
"&	c #6A6865",
"*	c #666461",
"=	c #5C5956",
"-	c #55524F",
";	c #63615E",
">	c #6C6A67",
",	c #625F5C",
"'	c #5A5855",
")	c #6A6765",
"!	c #5A5754",
"~	c #5F5C59",
"{	c #5B5856",
"]	c #54514E",
"^	c #BEBDBC",
"/	c #C0C0BF",
"(	c #757370",
"_	c #C1C0BF",
":	c #BCBBBB",
"<	c #5D5A58",
"[	c #D6D6D5",
"}	c #C4C3C2",
"|	c #757371",
"1	c #C3C2C2",
"2	c #C5C4C3",
"3	c #767371",
"4	c #6B6866",
"5	c #656260",
"6	c #BCBBBA",
"7	c #615E5C",
"8	c #5E5B58",
".......+@#$%&$*=-.......",
".....-;>>>>>>>>>%,-.....",
"....')>>>>>>>>>>>>%!....",
"...=>>>>>>>>>>>>>>>%~...",
"..{>>>>>>>>>>>>>>>>>%'..",
".-)>>>>>>>>>>>>>>>>>>%-.",
".,>>>>>>>>>>>>>>>>>>>>,.",
"->>>>>>>>>>>>>>>>>>>>>%]",
"@>>>>>>>^/(>>(_:>>>>>>><",
"*>>>>>>>/[}((}[_>>>>>>>#",
"$>>>>>>>(}[}}[}(>>>>>>>$",
"%>>>>>>>>|1[[23>>>>>>>>4",
"%>>>>>>>>|1[[23>>>>>>>>%",
"$>>>>>>>(}[}}[}(>>>>>>>$",
"#>>>>>>>_[}((}[/>>>>>>>5",
"~>>>>>>>:/(>>(/6>>>>>>>@",
"->>>>>>>>>>>>>>>>>>>>>>-",
".,>>>>>>>>>>>>>>>>>>>>7.",
".-)>>>>>>>>>>>>>>>>>>)-.",
"..!>>>>>>>>>>>>>>>>>>!..",
"...8>>>>>>>>>>>>>>>>=...",
"....!)>>>>>>>>>>>>)!....",
".....-;>>>>>>>>>%,-.....",
".......-8*$%&$#=-......."};
