/* XPM */
static char * menu_inactive_xpm[] = {
"24 24 4 1",
" 	c None",
".	c #524F4C",
"+	c #D6D6D5",
"@	c #B8B7B6",
"........................",
"........................",
"........................",
"........................",
"........................",
"........................",
"........................",
"........................",
"........................",
"........................",
"........++++++++........",
"........@++++++@........",
".........@++++@.........",
"..........@++@..........",
"...........++...........",
"........................",
"........................",
"........................",
"........................",
"........................",
"........................",
"........................",
"........................",
"........................"};
