/* XPM */
static char * shade_pressed_xpm[] = {
"24 24 39 1",
" 	c None",
".	c #454240",
"+	c #44413F",
"@	c #43403E",
"#	c #413E3C",
"$	c #3F3C39",
"%	c #3E3B39",
"&	c #3D3B39",
"*	c #3F3C3B",
"=	c #43403F",
"-	c #44403E",
";	c #403D3A",
">	c #3D3B38",
",	c #3D3A39",
"'	c #413F3D",
")	c #423E3D",
"!	c #423E3C",
"~	c #403E3B",
"{	c #423F3C",
"]	c #4D4946",
"^	c #C6C5C5",
"/	c #3E3B3A",
"(	c #4F4B48",
"_	c #EDEDED",
":	c #514D4A",
"<	c #524F4C",
"[	c #55514E",
"}	c #65625F",
"|	c #615D5B",
"1	c #5E5A58",
"2	c #686462",
"3	c #3F3C3A",
"4	c #3F3D3B",
"5	c #403D3B",
"6	c #423F3E",
"7	c #433F3D",
"8	c #413D3C",
"9	c #3F3B3A",
"0	c #423F3D",
"......+@#$%&%%*#=+......",
"....+-;>>>>>>>>>,*-+....",
"...+'%>>>>>>>>>>>>,)+...",
"..+!>>>>>>>>>>>>>>>,~+..",
".+{>>>>>>>>>>>>>>>>>,'+.",
"+=%>>>>>>>>>>>>>>>>>>&=+",
"+*>>>>>>>>>>>>>>>>>>>>*+",
"=>>>>>>>>>>>>>>>>>>>>>&@",
"#>>>>>>>>>]^^]>>>>>>>>>#",
"/>>>>>>>>(^__^:>>>>>>>>$",
"%>>>>>>><^____^[>>>>>>>%",
",>>>>>>>^_^__^_^>>>>>>>%",
",>>>>>>>}^|__1^2>>>>>>>,",
"%>>>>>>>>>>__>>>>>>>>>>%",
"$>>>>>>>>>>__>>>>>>>>>>3",
"4>>>>>>>>>>__>>>>>>>>>>5",
"6>>>>>>>>>>>>>>>>>>>>>>6",
"@*>>>>>>>>>>>>>>>>>>>>5@",
"@7%>>>>>>>>>>>>>>>>>>%6@",
"+@8>>>>>>>>>>>>>>>>>>8@+",
"++@5>>>>>>>>>>>>>>>>8@++",
".++@8%>>>>>>>>>>>>%8@++.",
"..++@!$>>>>>>>>>,9!@++..",
"...++@0!5/%&%%$8!0@++..."};
