/* XPM */
static char * shade_inactive_xpm[] = {
"24 24 9 1",
" 	c None",
".	c #524F4C",
"+	c #B8B7B6",
"@	c #D6D6D5",
"#	c #55514E",
"$	c #65625F",
"%	c #615D5B",
"&	c #5E5A58",
"*	c #686462",
"........................",
"........................",
"........................",
"........................",
"........................",
"........................",
"........................",
"........................",
"...........++...........",
"..........+@@+..........",
".........+@@@@+#........",
"........+@+@@+@+........",
"........$+%@@&+*........",
"...........@@...........",
"...........@@...........",
"...........@@...........",
"........................",
"........................",
"........................",
"........................",
"........................",
"........................",
"........................",
"........................"};
