/* XPM */
static char * stick_toggled_inactive_xpm[] = {
"24 24 18 1",
" 	c None",
".	c #524F4C",
"+	c #5C5956",
"@	c #AFADAC",
"#	c #D6D6D5",
"$	c #B1B0AF",
"%	c #625F5C",
"&	c #D4D4D4",
"*	c #D5D5D5",
"=	c #B3B2B1",
"-	c #5C5856",
";	c #5C5855",
">	c #B5B4B3",
",	c #AEADAC",
"'	c #D8D8D8",
")	c #D7D7D7",
"!	c #AEACAB",
"~	c #D4D3D3",
"........................",
"........................",
"........................",
"........................",
"........................",
"........................",
"........................",
"........................",
".........+@##$%.........",
"........+&####*+........",
"........@#=-;>#,........",
"........'#;..+#)........",
"........'#;..+##........",
"........$#>;+>#!........",
"........%*####~;........",
".........+,##!;.........",
"........................",
"........................",
"........................",
"........................",
"........................",
"........................",
"........................",
"........................"};
