/* XPM */
static char * stick_inactive_xpm[] = {
"24 24 16 1",
" 	c None",
".	c #524F4C",
"+	c #5C5956",
"@	c #AFADAC",
"#	c #D8D8D8",
"$	c #B1B0AF",
"%	c #625F5C",
"&	c #D4D4D4",
"*	c #D6D6D5",
"=	c #D5D5D5",
"-	c #AEADAC",
";	c #D7D7D7",
">	c #D6D6D6",
",	c #AEACAB",
"'	c #D4D3D3",
")	c #5C5855",
"........................",
"........................",
"........................",
"........................",
"........................",
"........................",
"........................",
"........................",
".........+@##$%.........",
"........+&****=+........",
"........@******-........",
"........#******;........",
"........#******>........",
"........$******,........",
"........%=****')........",
".........+-;;,).........",
"........................",
"........................",
"........................",
"........................",
"........................",
"........................",
"........................",
"........................"};
