/* XPM */
static char * top_right_inactive_xpm[] = {
"7 70 39 1",
" 	c None",
".	c #64625F",
"+	c #63615E",
"@	c #524F4C",
"#	c #53514E",
"$	c #5B5956",
"%	c #5C5A57",
"&	c #55534E",
"*	c #62615E",
"=	c #615F5C",
"-	c #605D5B",
";	c #5D5C59",
">	c #5A5856",
",	c #585753",
"'	c #565452",
")	c #555250",
"!	c #52514F",
"~	c #514F4D",
"{	c #504D4B",
"]	c #4D4B49",
"^	c #4C4A47",
"/	c #4A4846",
"(	c #484644",
"_	c #474443",
":	c #444341",
"<	c #43413F",
"[	c #41403E",
"}	c #403D3C",
"|	c #3D3C3A",
"1	c #3C3A38",
"2	c #3A3937",
"3	c #393635",
"4	c #363534",
"5	c #353332",
"6	c #333130",
"7	c #31302E",
"8	c #2F2D2D",
"9	c #2D2C2B",
"0	c #2C2A29",
"....+  ",
"@@@#$+ ",
"@@@@@%+",
"@@@@@&.",
"@@@@@@.",
"@@@@@@.",
"@@@@@@.",
"@@@@@@.",
"@@@@@@.",
"@@@@@@.",
"@@@@@@.",
"@@@@@@.",
"@@@@@@.",
"@@@@@@.",
"@@@@@@.",
"@@@@@@.",
"@@@@@@.",
"@@@@@@.",
"@@@@@@.",
"@@@@@@.",
"@@@@@@.",
"@@@@@@.",
"@@@@@@.",
"@@@@@@.",
"@@@@@@.",
"@@@@@@.",
"@@@@@@.",
"@@@@@@.",
"@@@@@@.",
"@@@@@@.",
"@@@@@@.",
"@@@@@@.",
"@@@@@@.",
"@@@@@@.",
"@@@@@@.",
"@@@@@@.",
"@@@@@@.",
"      .",
"      *",
"      =",
"      -",
"      ;",
"      %",
"      >",
"      ,",
"      '",
"      )",
"      !",
"      ~",
"      {",
"      ]",
"      ^",
"      /",
"      (",
"      _",
"      :",
"      <",
"      [",
"      }",
"      |",
"      1",
"      2",
"      3",
"      4",
"      5",
"      6",
"      7",
"      8",
"      9",
"      0"};
