#define desk_pressed_width 6
#define desk_pressed_height 6
static unsigned char desk_pressed_bits[] = {
   0x00, 0x1e, 0x1e, 0x1e, 0x1e, 0x00 };
