/* XPM */
static char * maximize_active_xpm[] = {
"24 24 8 1",
" 	c None",
".	c #454240",
"+	c #C7C6C6",
"@	c #EDEDED",
"#	c #C6C5C5",
"$	c #514E4C",
"%	c #524F4D",
"&	c #C5C5C4",
"........................",
"........................",
"........................",
"........................",
"........................",
"........................",
"........................",
"........................",
"........+@@@@@@#........",
"........@@@@@@@@........",
"........@@$..%@@........",
"........@@....@@........",
"........@@....@@........",
"........@@%..%@@........",
"........@@@@@@@@........",
"........#@@@@@@&........",
"........................",
"........................",
"........................",
"........................",
"........................",
"........................",
"........................",
"........................"};
