/* XPM */
static char * shade_toggled_active_xpm[] = {
"24 24 13 1",
" 	c None",
".	c #454240",
"+	c #EDEDED",
"@	c #65625F",
"#	c #C6C5C5",
"$	c #615D5B",
"%	c #5E5A58",
"&	c #686462",
"*	c #524F4C",
"=	c #55514E",
"-	c #4F4B48",
";	c #514D4A",
">	c #4D4946",
"........................",
"........................",
"........................",
"........................",
"........................",
"........................",
"........................",
"........................",
"...........++...........",
"...........++...........",
"...........++...........",
"........@#$++%#&........",
"........#+#++#+#........",
"........*#++++#=........",
".........-#++#;.........",
"..........>##>..........",
"........................",
"........................",
"........................",
"........................",
"........................",
"........................",
"........................",
"........................"};
