/* XPM */
static char * stick_pressed_xpm[] = {
"24 24 42 1",
" 	c None",
".	c #454240",
"+	c #44413F",
"@	c #43403E",
"#	c #413E3C",
"$	c #3F3C39",
"%	c #3E3B39",
"&	c #3D3B39",
"*	c #3F3C3B",
"=	c #43403F",
"-	c #44403E",
";	c #403D3A",
">	c #3D3B38",
",	c #3D3A39",
"'	c #413F3D",
")	c #423E3D",
"!	c #423E3C",
"~	c #403E3B",
"{	c #423F3C",
"]	c #5C5956",
"^	c #AFADAC",
"/	c #D8D8D8",
"(	c #B1B0AF",
"_	c #625F5C",
":	c #3E3B3A",
"<	c #D4D4D4",
"[	c #FCFCFC",
"}	c #D5D5D5",
"|	c #AEADAC",
"1	c #D7D7D7",
"2	c #D6D6D6",
"3	c #AEACAB",
"4	c #D4D3D3",
"5	c #5C5855",
"6	c #3F3C3A",
"7	c #3F3D3B",
"8	c #403D3B",
"9	c #423F3E",
"0	c #433F3D",
"a	c #413D3C",
"b	c #3F3B3A",
"c	c #423F3D",
"......+@#$%&%%*#=+......",
"....+-;>>>>>>>>>,*-+....",
"...+'%>>>>>>>>>>>>,)+...",
"..+!>>>>>>>>>>>>>>>,~+..",
".+{>>>>>>>>>>>>>>>>>,'+.",
"+=%>>>>>>>>>>>>>>>>>>&=+",
"+*>>>>>>>>>>>>>>>>>>>>*+",
"=>>>>>>>>>>>>>>>>>>>>>&@",
"#>>>>>>>>]^//(_>>>>>>>>#",
":>>>>>>>]<[[[[}]>>>>>>>$",
"%>>>>>>>^[[[[[[|>>>>>>>%",
",>>>>>>>/[[[[[[1>>>>>>>%",
",>>>>>>>/[[[[[[2>>>>>>>,",
"%>>>>>>>([[[[[[3>>>>>>>%",
"$>>>>>>>_}[[[[45>>>>>>>6",
"7>>>>>>>>]|1135>>>>>>>>8",
"9>>>>>>>>>>>>>>>>>>>>>>9",
"@*>>>>>>>>>>>>>>>>>>>>8@",
"@0%>>>>>>>>>>>>>>>>>>%9@",
"+@a>>>>>>>>>>>>>>>>>>a@+",
"++@8>>>>>>>>>>>>>>>>a@++",
".++@a%>>>>>>>>>>>>%a@++.",
"..++@!$>>>>>>>>>,b!@++..",
"...++@c!8:%&%%$a!c@++..."};
