/* XPM */
static char * stick_toggled_active_xpm[] = {
"24 24 16 1",
" 	c None",
".	c #454240",
"+	c #5C5956",
"@	c #AFADAC",
"#	c #EDEDED",
"$	c #B1B0AF",
"%	c #625F5C",
"&	c #D4D4D4",
"*	c #D5D5D5",
"=	c #B3B2B1",
"-	c #5C5856",
";	c #5C5855",
">	c #B5B4B3",
",	c #AEADAC",
"'	c #AEACAB",
")	c #D4D3D3",
"........................",
"........................",
"........................",
"........................",
"........................",
"........................",
"........................",
"........................",
".........+@##$%.........",
"........+&####*+........",
"........@#=-;>#,........",
"........##;..+##........",
"........##;..+##........",
"........$#>;+>#'........",
"........%*####);........",
".........+,##';.........",
"........................",
"........................",
"........................",
"........................",
"........................",
"........................",
"........................",
"........................"};
