/* XPM */
static char * top_right_active_xpm[] = {
"7 70 40 1",
" 	c None",
".	c #575553",
"+	c #575552",
"@	c #565452",
"#	c #454240",
"$	c #474341",
"%	c #4D4B49",
"&	c #4D4B4A",
"*	c #474443",
"=	c #545351",
"-	c #53514F",
";	c #52504E",
">	c #514E4D",
",	c #4F4D4C",
"'	c #4E4C4A",
")	c #4C4A48",
"!	c #4B4947",
"~	c #4A4846",
"{	c #484644",
"]	c #474544",
"^	c #464442",
"/	c #444240",
"(	c #43413F",
"_	c #42403E",
":	c #403F3C",
"<	c #3F3D3B",
"[	c #3D3C3A",
"}	c #3C3A39",
"|	c #3B3938",
"1	c #393736",
"2	c #383635",
"3	c #373433",
"4	c #353332",
"5	c #343231",
"6	c #323030",
"7	c #312F2E",
"8	c #302E2D",
"9	c #2F2D2B",
"0	c #2E2B2A",
"a	c #2C2A29",
"...+@  ",
"###$%@ ",
"#####&@",
"#####*+",
"######.",
"######.",
"######.",
"######.",
"######.",
"######.",
"######.",
"######.",
"######.",
"######.",
"######.",
"######.",
"######.",
"######.",
"######.",
"######.",
"######.",
"######.",
"######.",
"######.",
"######.",
"######.",
"######.",
"######.",
"######.",
"######.",
"######.",
"######.",
"######.",
"######.",
"######.",
"######.",
"######.",
"      .",
"      @",
"      =",
"      -",
"      ;",
"      >",
"      ,",
"      '",
"      )",
"      !",
"      ~",
"      {",
"      ]",
"      ^",
"      /",
"      (",
"      _",
"      :",
"      <",
"      [",
"      }",
"      |",
"      1",
"      2",
"      3",
"      4",
"      5",
"      6",
"      7",
"      8",
"      9",
"      0",
"      a"};
