/* XPM */
static char * close_pressed_xpm[] = {
"24 24 57 1",
" 	c None",
".	c #DEDEDE",
"+	c #E1D4C9",
"@	c #E8C8AE",
"#	c #EABF9B",
"$	c #F1AD73",
"%	c #F2AC71",
"&	c #F2AF76",
"*	c #EBBF9A",
"=	c #E8C3A4",
"-	c #E4CFBD",
";	c #E2D3C6",
">	c #ECBB91",
",	c #EDB88B",
"'	c #E4D0C0",
")	c #E7C8AE",
"!	c #F1AF78",
"~	c #F1B07A",
"{	c #E6C9B0",
"]	c #E9C2A2",
"^	c #E2D5CB",
"/	c #ECBC93",
"(	c #E2D4C9",
"_	c #E8C5A7",
":	c #5F4938",
"<	c #5A4536",
"[	c #E1A16A",
"}	c #E1A06B",
"|	c #594535",
"1	c #614A39",
"2	c #E9C4A5",
"3	c #EEB687",
"4	c #342C27",
"5	c #554233",
"6	c #544233",
"7	c #5A4636",
"8	c #EEB788",
"9	c #F0B17C",
"0	c #F2AD72",
"a	c #E2A26B",
"b	c #564234",
"c	c #524033",
"d	c #E0A06A",
"e	c #DF9F6A",
"f	c #EDB789",
"g	c #EEB789",
"h	c #624A39",
"i	c #F2AC72",
"j	c #F0AE76",
"k	c #E8C4A6",
"l	c #E6CBB4",
"m	c #E4D1C2",
"n	c #ECB88D",
"o	c #E3D5C9",
"p	c #E2D1C2",
"q	c #E9C3A3",
"r	c #F1AD74",
".......+@#$%%&*=-.......",
".....;>%%%%%%%%%%,'.....",
"....)!%%%%%%%%%%%%~{....",
"...=%%%%%%%%%%%%%%%%]...",
"..)%%%%%%%%%%%%%%%%%%)..",
".+~%%%%%%%%%%%%%%%%%%!^.",
".>%%%%%%%%%%%%%%%%%%%%/.",
"(%%%%%%%%%%%%%%%%%%%%%%+",
"_%%%%%%%:<[%%}|1%%%%%%%2",
"3%%%%%%%<45[[647%%%%%%%8",
"9%%%%%%%[645545[%%%%%%%9",
"0%%%%%%%%ab44cd%%%%%%%%%",
"%%%%%%%%%ab44ce%%%%%%%%0",
"9%%%%%%%[645546[%%%%%%%9",
"f%%%%%%%|46[[54<%%%%%%%g",
"_%%%%%%%1<}%%[<h%%%%%%%2",
"+i%%%%%%%%%%%%%%%%%%%%%(",
".>%%%%%%%%%%%%%%%%%%%%/.",
".+j%%%%%%%%%%%%%%%%%%~^.",
"..)%%%%%%%%%%%%%%%%%%)..",
"...=%%%%%%%%%%%%%%%%k...",
"....l~%%%%%%%%%%%%~)....",
".....mn%%%%%%%%%%/o.....",
".......pq*!%%r#@+......."};
