/* XPM */
static char * hide_pressed_xpm[] = {
"24 24 12 1",
" 	c None",
".	c #DEDEDE",
"+	c #E0E0E0",
"@	c #E2E2E2",
"#	c #E4E4E4",
"$	c #E7E7E7",
"%	c #E3E3E3",
"&	c #E1E1E1",
"*	c #E5E5E5",
"=	c #E6E6E6",
"-	c #DFDFDF",
";	c #342C27",
".......+@#$$$$%%&.......",
".....+*$$$$$$$$$$*&.....",
"....@=$$$$$$$$$$$$=@....",
"...%$$$$$$$$$$$$$$$$%...",
"..@$$$$$$$$$$$$$$$$$$@..",
".+=$$$$$$$$$$$$$$$$$$=-.",
".*$$$$$$$$$$$$$$$$$$$$#.",
"&$$$$$$$$$$$$$$$$$$$$$$+",
"%$$$$$$$$$$$$$$$$$$$$$$%",
"*$$$$$$$$$$$$$$$$$$$$$$*",
"=$$$$$$$$$$$$$$$$$$$$$$=",
"$$$$$$$$$$$$$$$$$$$$$$$$",
"$$$$$$$$$$$$$$$$$$$$$$$$",
"=$$$$$$$$$$$$$$$$$$$$$$=",
"*$$$$$$$;;;;;;;;$$$$$$$*",
"%$$$$$$$;;;;;;;;$$$$$$$%",
"+$$$$$$$$$$$$$$$$$$$$$$&",
".*$$$$$$$$$$$$$$$$$$$$#.",
".+$$$$$$$$$$$$$$$$$$$=-.",
"..@$$$$$$$$$$$$$$$$$$@..",
"...%$$$$$$$$$$$$$$$$%...",
"....@=$$$$$$$$$$$$$@....",
".....+*$$$$$$$$$$#&.....",
".......+@%=$$$#@+......."};
