/* XPM */
static char * stick_active_xpm[] = {
"24 24 5 1",
" 	c None",
".	c #DEDEDE",
"+	c #D4D4D3",
"@	c #756F6B",
"#	c #574F4A",
"........................",
"........................",
"........................",
"........................",
"........................",
"........................",
"........................",
"........................",
".........+@##@+.........",
"........+@####@+........",
"........@######@........",
"........########........",
"........########........",
"........@######@........",
"........+@####@+........",
".........+@##@+.........",
"........................",
"........................",
"........................",
"........................",
"........................",
"........................",
"........................",
"........................"};
