#define light_width 10
#define light_height 10
#define light_x_hot 0
#define light_y_hot 0
static unsigned char light_bits[] = {
   0x00, 0x00, 0xfe, 0x01, 0x02, 0x01, 0x02, 0x01, 0x02, 0x01, 0x02, 0x01,
   0xfe, 0x01, 0x30, 0x00, 0xfc, 0x00, 0x00, 0x00 };
