#define sepa_width 10
#define sepa_height 10
#define sepa_x_hot 0
#define sepa_y_hot 0
static unsigned char sepa_bits[] = {
   0x00, 0x00, 0x00, 0x00, 0x00, 0x00, 0x30, 0x00, 0x78, 0x00, 0x78, 0x00,
   0x30, 0x00, 0x00, 0x00, 0x00, 0x00, 0x00, 0x00 };
