#define volume2_width 10
#define volume2_height 10
#define volume2_x_hot 0
#define volume2_y_hot 0
static unsigned char volume2_bits[] = {
   0x00, 0x00, 0x00, 0x00, 0x70, 0x00, 0x88, 0x00, 0x04, 0x01, 0x04, 0x01,
   0xdc, 0x01, 0x54, 0x01, 0xd8, 0x00, 0x00, 0x00 };
