#define battery_width 10
#define battery_height 10
#define battery_x_hot 0
#define battery_y_hot 0
static unsigned char battery_bits[] = {
   0x00, 0x00, 0x00, 0x00, 0xfe, 0x01, 0x02, 0x03, 0x7a, 0x03, 0x7a, 0x03,
   0x02, 0x03, 0xfe, 0x01, 0x00, 0x00, 0x00, 0x00 };
