#define clock_width 10
#define clock_height 10
#define clock_x_hot 0
#define clock_y_hot 0
static unsigned char clock_bits[] = {
   0x00, 0x00, 0xfe, 0x01, 0x02, 0x01, 0x12, 0x01, 0x12, 0x01, 0x72, 0x01,
   0x02, 0x01, 0x02, 0x01, 0xfe, 0x01, 0x00, 0x00 };
