#define volume_width 10
#define volume_height 10
#define volume_x_hot 0
#define volume_y_hot 0
static unsigned char volume_bits[] = {
   0x00, 0x00, 0x00, 0x00, 0x10, 0x00, 0x18, 0x00, 0x5e, 0x00, 0x5e, 0x00,
   0x18, 0x00, 0x10, 0x00, 0x00, 0x00, 0x00, 0x00 };
