#define wifi_width 10
#define wifi_height 10
#define wifi_x_hot 0
#define wifi_y_hot 0
static unsigned char wifi_bits[] = {
   0x00, 0x00, 0x80, 0x01, 0x80, 0x01, 0xb0, 0x01, 0xb0, 0x01, 0xb6, 0x01,
   0xb6, 0x01, 0xb6, 0x01, 0x00, 0x00, 0x00, 0x00 };
