/* XPM */
static char * close_prelight_xpm[] = {
"24 24 44 1",
" 	c None",
".	c #454240",
"+	c #604D40",
"@	c #89603F",
"#	c #B7743E",
"$	c #D1813D",
"%	c #E58A3E",
"&	c #E1873D",
"*	c #C2793E",
"=	c #845E3F",
"-	c #554940",
";	c #5A4B40",
">	c #AD703E",
",	c #E98B3D",
"'	c #E58A3D",
")	c #A86E3E",
"!	c #78593F",
"~	c #E0873E",
"{	c #75573F",
"]	c #835E3F",
"^	c #99673E",
"/	c #7E5B3F",
"(	c #7A5A3F",
"_	c #504740",
":	c #F8E3D1",
"<	c #F9E6D6",
"[	c #EB954E",
"}	c #F9E6D7",
"|	c #F8E2CF",
"1	c #FCFCFC",
"2	c #F9E9DC",
"3	c #F9E5D5",
"4	c #EB954D",
"5	c #F9E9DB",
"6	c #F9EADE",
"7	c #EB964F",
"8	c #E2873D",
"9	c #EB9650",
"0	c #BC773E",
"a	c #93653F",
"b	c #F8E1CF",
"c	c #A26C3E",
"d	c #8D633F",
"e	c #AD713E",
".......+@#$%&$*=-.......",
".....;>,,,,,,,,,');.....",
"....!~,,,,,,,,,,,,'{....",
"...],,,,,,,,,,,,,,,'^...",
"../,,,,,,,,,,,,,,,,,'(..",
".-~,,,,,,,,,,,,,,,,,,%-.",
".),,,,,,,,,,,,,,,,,,,,).",
"-,,,,,,,,,,,,,,,,,,,,,%_",
"@,,,,,,,:<[,,[}|,,,,,,,@",
"*,,,,,,,<12[[213,,,,,,,#",
"$,,,,,,,[212212[,,,,,,,$",
"',,,,,,,,451167,,,,,,,,8",
"',,,,,,,,451169,,,,,,,,'",
"$,,,,,,,[212212[,,,,,,,$",
"#,,,,,,,}12[[21<,,,,,,,0",
"a,,,,,,,|<[,,[<b,,,,,,,@",
"-,,,,,,,,,,,,,,,,,,,,,,-",
".),,,,,,,,,,,,,,,,,,,,c.",
".;~,,,,,,,,,,,,,,,,,,~-.",
"..{,,,,,,,,,,,,,,,,,,{..",
"...d,,,,,,,,,,,,,,,,]...",
"....{~,,,,,,,,,,,,~{....",
".....;e,,,,,,,,,');.....",
".......;d*$%&$#=;......."};
