/* XPM */
static char * close_active_xpm[] = {
"24 24 49 1",
" 	c None",
".	c #454240",
"+	c #5F4A39",
"@	c #89562D",
"#	c #B66420",
"$	c #D16C18",
"%	c #E47213",
"&	c #E07113",
"*	c #C1671D",
"=	c #84552E",
"-	c #54473C",
";	c #5A483A",
">	c #AC6123",
",	c #E87311",
"'	c #A76023",
")	c #785131",
"!	c #DF7014",
"~	c #745032",
"{	c #83552E",
"]	c #985A28",
"^	c #7D5330",
"/	c #7A5230",
"(	c #DF7114",
"_	c #50453D",
":	c #88562D",
"<	c #ECD1BB",
"[	c #ECD5C1",
"}	c #E87D24",
"|	c #E87E24",
"1	c #ECD6C2",
"2	c #ECD0B9",
"3	c #89562C",
"4	c #EDEDED",
"5	c #ECD8C7",
"6	c #ECD8C8",
"7	c #ECD4C0",
"8	c #D06C18",
"9	c #E97E24",
"0	c #ECD7C6",
"a	c #ECDACB",
"b	c #E87E25",
"c	c #E17013",
"d	c #E87F26",
"e	c #BC651E",
"f	c #925A2A",
"g	c #EBD0B8",
"h	c #A25E25",
"i	c #8D582C",
"j	c #AD6122",
".......+@#$%&$*=-.......",
".....;>,,,,,,,,,%';.....",
"....)!,,,,,,,,,,,,%~....",
"...{,,,,,,,,,,,,,,,%]...",
"..^,,,,,,,,,,,,,,,,,%/..",
".-(,,,,,,,,,,,,,,,,,,%-.",
".',,,,,,,,,,,,,,,,,,,,'.",
"-,,,,,,,,,,,,,,,,,,,,,%_",
":,,,,,,,<[},,|12,,,,,,,3",
"*,,,,,,,[45}}647,,,,,,,#",
"8,,,,,,,}645545},,,,,,,8",
"%,,,,,,,,9044ab,,,,,,,,c",
"%,,,,,,,,9044ad,,,,,,,,%",
"8,,,,,,,}645546},,,,,,,8",
"#,,,,,,,146}}54[,,,,,,,e",
"f,,,,,,,2[|,,}[g,,,,,,,:",
"-,,,,,,,,,,,,,,,,,,,,,,-",
".',,,,,,,,,,,,,,,,,,,,h.",
".;(,,,,,,,,,,,,,,,,,,(-.",
"..~,,,,,,,,,,,,,,,,,,~..",
"...i,,,,,,,,,,,,,,,,{...",
"....~!,,,,,,,,,,,,!~....",
".....;j,,,,,,,,,%';.....",
".......;i*$%&$#=;......."};
