/* XPM */
static char * close_pressed_xpm[] = {
"24 24 57 1",
" 	c None",
".	c #454240",
"+	c #44413F",
"@	c #5F5246",
"#	c #886950",
"$	c #B7865C",
"%	c #D29663",
"&	c #E6A268",
"*	c #E29F67",
"=	c #C38C60",
"-	c #856850",
";	c #544B43",
">	c #594E45",
",	c #AC7F59",
"'	c #EAA469",
")	c #A97D59",
"!	c #79614C",
"~	c #E19F67",
"{	c #745E4B",
"]	c #83664F",
"^	c #987354",
"/	c #7E644D",
"(	c #79614D",
"_	c #4F4842",
":	c #F8E8DB",
"<	c #F9EBDF",
"[	c #ECAC76",
"}	c #ECAC77",
"|	c #F9EBE0",
"1	c #F8E8DA",
"2	c #896B51",
"3	c #C38C5F",
"4	c #FCFCFC",
"5	c #F9EDE3",
"6	c #F9EEE4",
"7	c #F9EADE",
"8	c #D29563",
"9	c #ECAB75",
"0	c #ECAD77",
"a	c #E39F67",
"b	c #ECAD78",
"c	c #BD895D",
"d	c #927053",
"e	c #F8E7D9",
"f	c #87694F",
"g	c #534A42",
"h	c #43403E",
"i	c #A37A57",
"j	c #584D44",
"k	c #745D4A",
"l	c #8D6D52",
"m	c #83664E",
"n	c #574C43",
"o	c #AD7F5A",
"p	c #A97C59",
"q	c #423F3D",
"r	c #84674F",
"......+@#$%&*%=-;+......",
"....+>,'''''''''&)>+....",
"...+!~''''''''''''&{+...",
"..+]'''''''''''''''&^+..",
".+/'''''''''''''''''&(+.",
"+;~''''''''''''''''''&;+",
"+)'''''''''''''''''''')+",
";'''''''''''''''''''''&_",
"#''''''':<[''}|1'''''''2",
"3'''''''<45[[647'''''''$",
"8'''''''[645545['''''''8",
"&''''''''954460''''''''a",
"&''''''''95446b''''''''&",
"8'''''''[645546['''''''8",
"$'''''''|46[[54<'''''''c",
"d'''''''1<}''[<e'''''''f",
"g''''''''''''''''''''''g",
"h)''''''''''''''''''''ih",
"hj~''''''''''''''''''~gh",
"+hk''''''''''''''''''kh+",
"++hl''''''''''''''''mh++",
".++hk~''''''''''''~kh++.",
"..++hno'''''''''&pnh++..",
"...++hqnl38&*8$rnqh++..."};
