/* XPM */
static char * maximize_pressed_xpm[] = {
"24 24 34 1",
" 	c None",
".	c #454240",
"+	c #44413F",
"@	c #43403E",
"#	c #413E3C",
"$	c #3F3C39",
"%	c #3E3B39",
"&	c #3D3B39",
"*	c #3F3C3B",
"=	c #43403F",
"-	c #44403E",
";	c #403D3A",
">	c #3D3B38",
",	c #3D3A39",
"'	c #413F3D",
")	c #423E3D",
"!	c #423E3C",
"~	c #403E3B",
"{	c #423F3C",
"]	c #D1D0D0",
"^	c #FCFCFC",
"/	c #D0D0CF",
"(	c #3E3B3A",
"_	c #4B4946",
":	c #4B4A47",
"<	c #3F3C3A",
"[	c #3F3D3B",
"}	c #CFCFCE",
"|	c #403D3B",
"1	c #423F3E",
"2	c #433F3D",
"3	c #413D3C",
"4	c #3F3B3A",
"5	c #423F3D",
"......+@#$%&%%*#=+......",
"....+-;>>>>>>>>>,*-+....",
"...+'%>>>>>>>>>>>>,)+...",
"..+!>>>>>>>>>>>>>>>,~+..",
".+{>>>>>>>>>>>>>>>>>,'+.",
"+=%>>>>>>>>>>>>>>>>>>&=+",
"+*>>>>>>>>>>>>>>>>>>>>*+",
"=>>>>>>>>>>>>>>>>>>>>>&@",
"#>>>>>>>]^^^^^^/>>>>>>>#",
"(>>>>>>>^^^^^^^^>>>>>>>$",
"%>>>>>>>^^_>>:^^>>>>>>>%",
",>>>>>>>^^>>>>^^>>>>>>>%",
",>>>>>>>^^>>>>^^>>>>>>>,",
"%>>>>>>>^^:>>:^^>>>>>>>%",
"$>>>>>>>^^^^^^^^>>>>>>><",
"[>>>>>>>/^^^^^^}>>>>>>>|",
"1>>>>>>>>>>>>>>>>>>>>>>1",
"@*>>>>>>>>>>>>>>>>>>>>|@",
"@2%>>>>>>>>>>>>>>>>>>%1@",
"+@3>>>>>>>>>>>>>>>>>>3@+",
"++@|>>>>>>>>>>>>>>>>3@++",
".++@3%>>>>>>>>>>>>%3@++.",
"..++@!$>>>>>>>>>,4!@++..",
"...++@5!|(%&%%$3!5@++..."};
