/* XPM */
static char * shade_toggled_inactive_xpm[] = {
"24 24 9 1",
" 	c None",
".	c #524F4C",
"+	c #D6D6D5",
"@	c #65625F",
"#	c #B8B7B6",
"$	c #615D5B",
"%	c #5E5A58",
"&	c #686462",
"*	c #55514E",
"........................",
"........................",
"........................",
"........................",
"........................",
"........................",
"........................",
"........................",
"...........++...........",
"...........++...........",
"...........++...........",
"........@#$++%#&........",
"........#+#++#+#........",
".........#++++#*........",
"..........#++#..........",
"...........##...........",
"........................",
"........................",
"........................",
"........................",
"........................",
"........................",
"........................",
"........................"};
