/* XPM */
static char * shade_active_xpm[] = {
"24 24 13 1",
" 	c None",
".	c #454240",
"+	c #4D4946",
"@	c #C6C5C5",
"#	c #4F4B48",
"$	c #EDEDED",
"%	c #514D4A",
"&	c #524F4C",
"*	c #55514E",
"=	c #65625F",
"-	c #615D5B",
";	c #5E5A58",
">	c #686462",
"........................",
"........................",
"........................",
"........................",
"........................",
"........................",
"........................",
"........................",
"..........+@@+..........",
".........#@$$@%.........",
"........&@$$$$@*........",
"........@$@$$@$@........",
"........=@-$$;@>........",
"...........$$...........",
"...........$$...........",
"...........$$...........",
"........................",
"........................",
"........................",
"........................",
"........................",
"........................",
"........................",
"........................"};
