/* XPM */
static char * shade_prelight_xpm[] = {
"24 24 24 1",
" 	c None",
".	c #454240",
"+	c #484543",
"@	c #4B4846",
"#	c #504E4C",
"$	c #53514F",
"%	c #555250",
"&	c #514E4C",
"*	c #464341",
"=	c #474442",
"-	c #4F4C4A",
";	c #555351",
">	c #4A4745",
",	c #4C4947",
"'	c #4D4B49",
")	c #D6D6D5",
"!	c #FCFCFC",
"~	c #65625F",
"{	c #615D5B",
"]	c #5E5A58",
"^	c #686462",
"/	c #4D4A48",
"(	c #4E4B49",
"_	c #504D4B",
".......+@#$%%$&@*.......",
".....=-;;;;;;;;;%-=.....",
"....>%;;;;;;;;;;;;%>....",
"...,;;;;;;;;;;;;;;;%'...",
"..@;;;;;;;;;;;;;;;;;%>..",
".*%;;;;;;;;;;;;;;;;;;%*.",
".-;;;;;;;;;;;;;;;;;;;;-.",
"*;;;;;;;;;;;;;;;;;;;;;%.",
"@;;;;;;;;;;));;;;;;;;;;,",
"&;;;;;;;;;)!!);;;;;;;;;#",
"$;;;;;;;;)!!!!);;;;;;;;$",
"%;;;;;;;)!)!!)!);;;;;;;%",
"%;;;;;;;~){!!])^;;;;;;;%",
"$;;;;;;;;;;!!;;;;;;;;;;$",
"#;;;;;;;;;;!!;;;;;;;;;;&",
"/;;;;;;;;;;!!;;;;;;;;;;@",
"*;;;;;;;;;;;;;;;;;;;;;;*",
".-;;;;;;;;;;;;;;;;;;;;(.",
".=%;;;;;;;;;;;;;;;;;;%*.",
"..>;;;;;;;;;;;;;;;;;;>..",
"...,;;;;;;;;;;;;;;;;,...",
"....>%;;;;;;;;;;;;%>....",
".....=_;;;;;;;;;%-=.....",
".......=,&$%%$#@=......."};
