/* XPM */
static char * stick_toggled_prelight_xpm[] = {
"24 24 32 1",
" 	c None",
".	c #454240",
"+	c #484543",
"@	c #4B4846",
"#	c #504E4C",
"$	c #53514F",
"%	c #555250",
"&	c #514E4C",
"*	c #464341",
"=	c #474442",
"-	c #4F4C4A",
";	c #555351",
">	c #4A4745",
",	c #4C4947",
"'	c #4D4B49",
")	c #5C5956",
"!	c #AFADAC",
"~	c #FCFCFC",
"{	c #B1B0AF",
"]	c #625F5C",
"^	c #D4D4D4",
"/	c #D5D5D5",
"(	c #B3B2B1",
"_	c #5C5856",
":	c #B5B4B3",
"<	c #AEADAC",
"[	c #AEACAB",
"}	c #D4D3D3",
"|	c #5C5855",
"1	c #4D4A48",
"2	c #4E4B49",
"3	c #504D4B",
".......+@#$%%$&@*.......",
".....=-;;;;;;;;;%-=.....",
"....>%;;;;;;;;;;;;%>....",
"...,;;;;;;;;;;;;;;;%'...",
"..@;;;;;;;;;;;;;;;;;%>..",
".*%;;;;;;;;;;;;;;;;;;%*.",
".-;;;;;;;;;;;;;;;;;;;;-.",
"*;;;;;;;;;;;;;;;;;;;;;%.",
"@;;;;;;;;)!~~{];;;;;;;;,",
"&;;;;;;;)^~~~~/);;;;;;;#",
"$;;;;;;;!~(_):~<;;;;;;;$",
"%;;;;;;;~~);;)~~;;;;;;;%",
"%;;;;;;;~~);;)~~;;;;;;;%",
"$;;;;;;;{~:)):~[;;;;;;;$",
"#;;;;;;;]/~~~~}|;;;;;;;&",
"1;;;;;;;;)<~~[|;;;;;;;;@",
"*;;;;;;;;;;;;;;;;;;;;;;*",
".-;;;;;;;;;;;;;;;;;;;;2.",
".=%;;;;;;;;;;;;;;;;;;%*.",
"..>;;;;;;;;;;;;;;;;;;>..",
"...,;;;;;;;;;;;;;;;;,...",
"....>%;;;;;;;;;;;;%>....",
".....=3;;;;;;;;;%-=.....",
".......=,&$%%$#@=......."};
